<svg width="323" height="322" viewBox="0 0 323 322" fill="none" xmlns="http://www.w3.org/2000/svg">
<path d="M161 30.0001H217.194C222.61 30.0001 227 25.6097 227 20.1939C227 16.4104 224.807 12.9237 221.322 11.4511C97.8998 -40.7015 -65.5503 98.8074 28.4999 248.5C140.67 402.671 366.135 292.647 314.939 107.615C313.862 103.724 310.247 101 306.21 101C301.123 101 297 105.123 297 110.21V161C297 171.493 288.493 180 278 180H246C235.507 180 227 171.493 227 161V120C227 109.507 218.493 101 208 101H161C150.507 101 142 92.4935 142 82.0001V49.0001C142 38.5067 150.507 30.0001 161 30.0001Z" fill="url(#paint0_linear_13_57)"/>
<defs>
<linearGradient id="paint0_linear_13_57" x1="307" y1="4.99996" x2="18.5" y2="333.5" gradientUnits="userSpaceOnUse">
<stop offset="0.197462" stop-color="#2F9A67"/>
<stop offset="0.874484" stop-color="#00669A"/>
</linearGradient>
</defs>
</svg>
